<?xml version="1.0" encoding="utf-8"?>
<!-- Generator: Adobe Illustrator 21.1.0, SVG Export Plug-In . SVG Version: 6.00 Build 0)  -->
<svg version="1.1"
	 id="svg2" inkscape:version="0.91 r13725" sodipodi:docname="Beyonce Logo.svg" xmlns:cc="http://creativecommons.org/ns#" xmlns:dc="http://purl.org/dc/elements/1.1/" xmlns:inkscape="http://www.inkscape.org/namespaces/inkscape" xmlns:rdf="http://www.w3.org/1999/02/22-rdf-syntax-ns#" xmlns:sodipodi="http://sodipodi.sourceforge.net/DTD/sodipodi-0.dtd" xmlns:svg="http://www.w3.org/2000/svg"
	 xmlns="http://www.w3.org/2000/svg" xmlns:xlink="http://www.w3.org/1999/xlink" x="0px" y="0px" viewBox="0 0 3000 1471.8"
	 style="enable-background:new 0 0 3000 1471.8;" xml:space="preserve">
<style type="text/css">
	.st0{fill:#E2AA33;}
</style>
<sodipodi:namedview  bordercolor="#666666" borderopacity="1" fit-margin-bottom="20" fit-margin-left="20" fit-margin-right="20" fit-margin-top="20" gridtolerance="10" guidetolerance="10" id="namedview6" inkscape:current-layer="svg2" inkscape:cx="1500" inkscape:cy="645.91048" inkscape:pageopacity="0" inkscape:pageshadow="2" inkscape:window-height="721" inkscape:window-maximized="1" inkscape:window-width="1280" inkscape:window-x="-4" inkscape:window-y="-4" inkscape:zoom="0.33054428" objecttolerance="10" pagecolor="#ffffff" showgrid="false">
	</sodipodi:namedview>
<path id="path4" inkscape:connector-curvature="0" class="st0" d="M217.2,1438.3H20V294h197.2c75.3,0,171.6,34.6,171.6,180.7v262
	c0,54.2-27.1,88.8-70.8,118.9c42.2,31.6,70.8,64.7,70.8,118.9v283.1C387.4,1403.6,292.5,1438.3,217.2,1438.3z M239.8,477.7
	c0-33.1-9-46.7-28.6-46.7h-39.1v364.4h39.1c19.6,0,28.6-13.6,28.6-46.7V477.7L239.8,477.7z M239.8,971.5c0-33.1-9-46.7-28.6-46.7
	h-39.1v377.9h39.1c19.6,0,28.6-13.6,28.6-46.7V971.5z M464.2,1438.3V294h313.2v137H614.7v347.8h111.4v137H614.7v383.9h164.1v137
	H464.2L464.2,1438.3z M1099.5,989.6v448.7H949V989.6L821,294h146l67.8,474.3l61.7-474.3h146L1099.5,989.6L1099.5,989.6z
	 M1474.4,1451.8c-105.4,0-192.7-78.3-192.7-195.7V476.2c0-114.4,87.3-195.7,192.7-195.7c106.9,0,192.7,81.3,192.7,195.7v779.9
	C1667.1,1372,1581.3,1451.8,1474.4,1451.8z M1513.6,465.7c0-25.6-13.6-40.7-39.1-40.7s-39.1,15.1-39.1,40.7v799.5
	c0,25.6,13.6,40.7,39.1,40.7s39.1-15.1,39.1-40.7V465.7L1513.6,465.7z M2028.5,1438.3L1902,873.7l-30.1-155.1v719.7h-126.5V294H1902
	l105.4,555.6l24.1,158.1V294h125v1142.7h-128V1438.3z M2422.9,1451.8c-105.4,0-197.2-78.3-197.2-195.7V476.2
	c0-114.4,91.8-195.7,197.2-195.7c112.9,0,173.1,81.3,173.1,195.7v218.3h-126.5V471.7c0-25.6-12-46.7-45.2-46.7s-45.2,21.1-45.2,46.7
	v788.9c0,25.6,12,46.7,45.2,46.7s45.2-21.1,45.2-46.7v-224.3h126.5v219.8C2596.1,1372,2535.8,1451.8,2422.9,1451.8L2422.9,1451.8z
	 M2666.8,1438.3V294H2980v137h-164.1v347.8h111.4v137h-111.4v383.9H2980v137h-313.2V1438.3z M2852,244.3h-70.8L2841.5,20h106.9
	L2852,244.3L2852,244.3z"/>
</svg>
