<?xml version="1.0" encoding="utf-8"?>
<!-- Generator: Adobe Illustrator 21.1.0, SVG Export Plug-In . SVG Version: 6.00 Build 0)  -->
<svg version="1.1" id="Capa_1" xmlns="http://www.w3.org/2000/svg" xmlns:xlink="http://www.w3.org/1999/xlink" x="0px" y="0px"
	 viewBox="0 0 512 512" style="enable-background:new 0 0 512 512;" xml:space="preserve">
<style type="text/css">
	.st0{fill:#E2AA33;}
</style>
<g>
	<path class="st0" d="M508.8,186.5c-2-17.4-4.8-30.6-8.3-39.5c-0.4-1.3-1.2-3.2-2.2-5.7c-1-2.4-1.7-4.2-2.2-5.3
		c-0.4-1.1-0.9-2.6-1.3-4.5c-0.4-1.9-0.8-3.8-1-5.7c-0.2-1.9-0.3-3.9-0.3-6.2c0-5.1,0.6-12.7,1.7-22.7c1.1-10,1.7-17.6,1.7-22.7
		c0-18.7-4.1-33.6-12.3-44.8c-8.2-11.2-21.3-16.8-39.3-16.8c-4.4,0-10.9,0.6-19.3,1.7c-8.4,1.1-14.8,1.7-19,1.7
		c-12.9,0-32.2-2.7-57.8-8c-25.7-5.3-45.2-8-58.5-8c-27.1,0-62.2,8.7-105.3,26c-34.2,13.6-60,26.9-77.3,40
		c-19.1,14.4-35.8,31.8-50,52c-14.2,20.2-25.4,41.8-33.5,64.7c-8.1,22.9-14.2,46.2-18.2,69.8c-4,23.7-6,47.8-6,72.5
		c0,9.1,1.4,22.6,4.2,40.5c2.8,17.9,4.2,31.3,4.2,40.2c0,5.1-1.2,12.5-3.7,22.3c-2.4,9.8-3.7,17.3-3.7,22.7
		c0,16.2,5.6,30.5,16.8,42.8C29.2,505.8,42.9,512,59.2,512c5.6,0,13.7-1.6,24.5-4.8c10.8-3.2,18.8-4.8,24.2-4.8
		c12.4,0,31.2,1.6,56.3,4.8c25.1,3.2,44,4.8,56.7,4.8c44.9,0,81.1-4.9,108.7-14.7c34.4-12.2,65.7-32.3,93.7-60.2
		c28-27.9,49.8-59.9,65.3-96c15.6-36.1,23.3-72.5,23.3-109.2C511.8,219.1,510.8,203.9,508.8,186.5z M449.3,324.3
		c-13.2,30.7-31.7,57.9-55.3,81.8c-23.7,23.9-49.8,40.8-78.5,50.8c-22.9,8-54.4,12-94.7,12c-12.7,0-31.5-1.7-56.5-5.2
		c-25-3.4-43.8-5.2-56.5-5.2c-5.6,0-13.7,1.2-24.5,3.7c-10.8,2.4-18.8,3.7-24.2,3.7c-4.9,0-8.7-1.6-11.3-4.8c-2.7-3.2-4-7.3-4-12.2
		c0-4.9,1.2-12.2,3.7-21.8c2.4-9.7,3.7-17.1,3.7-22.2c0-9.1-1.4-22.5-4.2-40.3c-2.8-17.8-4.2-31.1-4.2-40c0-28.7,2.7-56.3,8.2-82.8
		c5.4-26.6,15.2-52.8,29.3-78.7c14.1-25.9,31.8-46.9,53.2-63.2c14.4-10.9,36.9-22.3,67.3-34.3c12.4-4.9,22.4-8.7,29.8-11.3
		c7.4-2.7,16.9-5.3,28.3-7.8c11.4-2.6,21.9-3.8,31.5-3.8c13.1,0,32.6,2.7,58.3,8s45.3,8,58.7,8c4.4,0,11-0.5,19.7-1.5
		c8.7-1,15.1-1.5,19.3-1.5c2,0,3.5,0.1,4.3,0.3c2.2,4,3.3,10.1,3.3,18.3c0,4.9-0.6,12.4-1.7,22.5c-1.1,10.1-1.7,17.7-1.7,22.8
		c0,5.8,0.4,11.2,1.3,16.2c0.9,5,1.9,9.1,3,12.2c1.1,3.1,3,8,5.7,14.7c2.5,6,4.4,16.7,6,32.2c1.6,15.4,2.3,28.1,2.3,37.8
		C469.2,263.1,462.6,293.7,449.3,324.3z"/>
</g>
</svg>
