<?xml version="1.0" encoding="utf-8"?>
<!-- Generator: Adobe Illustrator 21.1.0, SVG Export Plug-In . SVG Version: 6.00 Build 0)  -->
<svg version="1.1" id="Layer_1" xmlns="http://www.w3.org/2000/svg" xmlns:xlink="http://www.w3.org/1999/xlink" x="0px" y="0px"
	 viewBox="0 0 512 512" style="enable-background:new 0 0 512 512;" xml:space="preserve">
<style type="text/css">
	.st0{fill:#E2AA33;}
</style>
<g>
	<g>
		<path class="st0" d="M384,256c-70.7,0-128,57.3-128,128s57.3,128,128,128s128-57.3,128-128S454.7,256,384,256z M384,488.7
			c-57.8,0-104.7-46.9-104.7-104.7S326.2,279.3,384,279.3S488.7,326.2,488.7,384S441.8,488.7,384,488.7z"/>
	</g>
</g>
<g>
	<g>
		<path class="st0" d="M430.5,372.4h-34.9v-34.9c0-6.4-5.2-11.6-11.6-11.6s-11.6,5.2-11.6,11.6v34.9h-34.9
			c-6.4,0-11.6,5.2-11.6,11.6c0,6.4,5.2,11.6,11.6,11.6h34.9v34.9c0,6.4,5.2,11.6,11.6,11.6s11.6-5.2,11.6-11.6v-34.9h34.9
			c6.4,0,11.6-5.2,11.6-11.6C442.2,377.6,437,372.4,430.5,372.4z"/>
	</g>
</g>
<g>
	<g>
		<path class="st0" d="M11.6,23.3h325.8c6.4,0,11.6-5.2,11.6-11.6S343.9,0,337.5,0H11.6C5.2,0,0,5.2,0,11.6S5.2,23.3,11.6,23.3z
			 M279.3,232.7H11.6c-6.4,0-11.6,5.2-11.6,11.6S5.2,256,11.6,256h267.6c6.4,0,11.6-5.2,11.6-11.6S285.7,232.7,279.3,232.7z
			 M337.5,116.4H11.6C5.2,116.4,0,121.6,0,128c0,6.4,5.2,11.6,11.6,11.6h325.8c6.4,0,11.6-5.2,11.6-11.6
			C349.1,121.6,343.9,116.4,337.5,116.4z M197.8,349.1H11.6c-6.4,0-11.6,5.2-11.6,11.6s5.2,11.6,11.6,11.6h186.2
			c6.4,0,11.6-5.2,11.6-11.6S204.2,349.1,197.8,349.1z"/>
	</g>
</g>
</svg>
